<?xml version="1.0" standalone="no"?>
<!DOCTYPE svg PUBLIC "-//W3C//DTD SVG 20010904//EN"
 "http://www.w3.org/TR/2001/REC-SVG-20010904/DTD/svg10.dtd">
<svg version="1.0" xmlns="http://www.w3.org/2000/svg"
 width="700.000000pt" height="700.000000pt" viewBox="0 0 700.000000 700.000000"
 preserveAspectRatio="xMidYMid meet">
<metadata>
Created by potrace 1.14, written by Peter Selinger 2001-2017
</metadata>
<g transform="translate(0.000000,700.000000) scale(0.100000,-0.100000)"
fill="#000000" stroke="none">
<path d="M2345 5189 c-123 -18 -220 -93 -250 -192 -8 -27 -17 -89 -21 -138
l-7 -88 -53 -16 c-29 -8 -99 -38 -155 -67 -224 -112 -346 -297 -399 -606 -33
-192 -43 -414 -37 -867 7 -516 23 -662 99 -858 122 -318 386 -465 935 -522
455 -47 1630 -47 2088 0 699 72 941 283 1015 885 17 138 25 882 11 1084 -27
396 -94 600 -251 756 -139 140 -323 214 -638 259 -244 35 -406 43 -1069 48
l-653 5 -5 37 c-27 174 -108 256 -282 281 -81 11 -244 11 -328 -1z m1362
-1009 c257 -61 468 -236 582 -482 50 -107 71 -190 78 -309 23 -376 -195 -721
-542 -860 -124 -49 -201 -61 -360 -56 -125 3 -150 7 -237 37 -377 126 -617
480 -595 873 7 124 27 206 78 315 177 383 586 581 996 482z"/>
<path d="M3420 3989 c-150 -17 -269 -77 -385 -193 -205 -206 -251 -493 -122
-756 58 -120 168 -230 287 -288 111 -55 183 -72 300 -72 116 0 189 17 299 71
155 76 278 224 333 399 33 106 32 274 -1 375 -38 118 -79 184 -171 275 -65 65
-103 94 -160 122 -123 60 -250 82 -380 67z"/>
</g>
</svg>
